<?xml version="1.0" encoding="utf-8"?><svg xmlns="http://www.w3.org/2000/svg" xmlns:xlink="http://www.w3.org/1999/xlink"><symbol id="bag" viewBox="0 0 15 18" xmlns="http://www.w3.org/2000/svg"><defs><style>.acls-1{fill:#576b8b}</style></defs><title>Bag</title><path class="acls-1" d="M14.51 4.73h-3.22V2.5A2.54 2.54 0 0 0 8.71 0H6.25a2.54 2.54 0 0 0-2.59 2.5v2.23H.45a.42.42 0 0 0-.45.45v10a2.54 2.54 0 0 0 2.59 2.5h9.82A2.54 2.54 0 0 0 15 15.22v-10a.52.52 0 0 0-.49-.49zM4.6 2.5A1.65 1.65 0 0 1 6.29.89h2.46a1.65 1.65 0 0 1 1.7 1.61v2.23H4.64V2.5zm9.46 12.72a1.65 1.65 0 0 1-1.7 1.61H2.59a1.65 1.65 0 0 1-1.7-1.61V5.63h13.17z"/></symbol></svg>